<?xml version="1.0" encoding="UTF-8" standalone="no"?>
<svg
   xmlns:dc="http://purl.org/dc/elements/1.1/"
   xmlns:cc="http://creativecommons.org/ns#"
   xmlns:rdf="http://www.w3.org/1999/02/22-rdf-syntax-ns#"
   xmlns:svg="http://www.w3.org/2000/svg"
   xmlns="http://www.w3.org/2000/svg"
   xmlns:xlink="http://www.w3.org/1999/xlink"
   xmlns:sodipodi="http://sodipodi.sourceforge.net/DTD/sodipodi-0.dtd"
   xmlns:inkscape="http://www.inkscape.org/namespaces/inkscape"
   inkscape:version="1.0 (4035a4fb49, 2020-05-01)"
   sodipodi:docname="no-data.svg"
   id="svg173"
   version="1.1"
   height="268"
   width="374">
  <metadata
     id="metadata177">
    <rdf:RDF>
      <cc:Work
         rdf:about="">
        <dc:format>image/svg+xml</dc:format>
        <dc:type
           rdf:resource="http://purl.org/dc/dcmitype/StillImage" />
      </cc:Work>
    </rdf:RDF>
  </metadata>
  <sodipodi:namedview
     inkscape:current-layer="g31"
     inkscape:window-maximized="1"
     inkscape:window-y="-9"
     inkscape:window-x="2391"
     inkscape:cy="146.91566"
     inkscape:cx="225.75341"
     inkscape:zoom="3.0970149"
     showgrid="false"
     id="namedview175"
     inkscape:window-height="1271"
     inkscape:window-width="2400"
     inkscape:pageshadow="2"
     inkscape:pageopacity="0"
     guidetolerance="10"
     gridtolerance="10"
     objecttolerance="10"
     borderopacity="1"
     bordercolor="#666666"
     pagecolor="#ffffff" />
  <defs
     id="defs7">
    <circle
       r="44"
       cy="44"
       cx="44"
       id="a" />
    <circle
       r="31"
       cy="31"
       cx="31"
       id="b" />
    <circle
       r="35"
       cy="35"
       cx="35"
       id="c" />
    <rect
       rx="10"
       height="176"
       width="230"
       id="d" />
    <circle
       r="31"
       cy="31"
       cx="31"
       id="e" />
  </defs>
  <g
     id="g171"
     fill-rule="evenodd"
     fill="none">
    <g
       id="g21"
       transform="translate(4 98)">
      <circle
         id="circle9"
         fill="#F9F9F9"
         r="44"
         cy="53"
         cx="53" />
      <g
         id="g19"
         transform="translate(6 6)">
        <use
           style="fill:#17280b"
           id="use11"
           xlink:href="#a"
           fill="#FFF" />
        <circle
           id="circle13"
           stroke-width="4"
           stroke="#EEE"
           r="42"
           cy="44"
           cx="44" />
        <path
           id="path15"
           d="M34.393813 55.7359021C35.0697211 55.2571338 35.8775885 55 36.7058824 55H56c3.3137085 0 6-2.6862915 6-6V35c0-3.3137085-2.6862915-6-6-6H34c-3.3137085 0-6 2.6862915-6 6v25.2648529l6.393813-4.5289508zM36.7058824 59l-7.9718304 5.6467132c-.5069311.3590761-1.1128316.5519265-1.734052.5519265-1.6568542 0-3-1.3431457-3-3V35c0-5.5228475 4.4771525-10 10-10h22c5.5228475 0 10 4.4771525 10 10v14c0 5.5228475-4.4771525 10-10 10H36.7058824z"
           fill-rule="nonzero"
           fill="#FEE1D3" />
        <path
           id="path17"
           d="M38 40c1.1045695 0 2 .8954305 2 2s-.8954305 2-2 2-2-.8954305-2-2 .8954305-2 2-2zm7 0c1.1045695 0 2 .8954305 2 2s-.8954305 2-2 2-2-.8954305-2-2 .8954305-2 2-2zm7 0c1.1045695 0 2 .8954305 2 2s-.8954305 2-2 2-2-.8954305-2-2 .8954305-2 2-2z"
           fill="#FC6D26" />
      </g>
    </g>
    <g
       id="g33"
       transform="translate(50 2)">
      <circle
         id="circle23"
         fill="#F9F9F9"
         r="31"
         cy="39"
         cx="39" />
      <g
         id="g31"
         transform="translate(5 5)">
        <use
           id="use25"
           xlink:href="#b"
           fill="#FFF" />
        <circle
           id="circle27"
           stroke-width="4"
           stroke="#EEE"
           r="29"
           cy="31"
           cx="31" />
        <rect
           style="fill:#ff0000"
           id="rect29"
           rx="2"
           fill="#6B4FBB"
           y="29"
           x="21"
           height="4"
           width="20" />
      </g>
    </g>
    <path
       id="path35"
       d="M235.580203 229H102c-6.627417 0-12-5.372583-12-12V65c0-6.627417 5.372583-12 12-12h206c6.627417 0 12 5.372583 12 12v18.3986044C325.033466 80.5963751 330.830306 79 337 79c19.329966 0 35 15.6700338 35 35s-15.670034 35-35 35c-6.169694 0-11.966534-1.5963751-17-4.3986044V217c0 6.627417-5.372583 12-12 12h-11.580203c.380691 1.941179.580203 3.94729.580203 6 0 17.120827-13.879173 31-31 31s-31-13.879173-31-31c0-2.05271.199512-4.058821.580203-6z"
       fill="#F9F9F9" />
    <g
       id="g161"
       transform="translate(87 50)">
      <g
         id="g51"
         transform="translate(212 26)">
        <use
           id="use37"
           xlink:href="#c"
           fill="#FFF" />
        <circle
           id="circle39"
           stroke-width="4"
           stroke="#EEE"
           r="33"
           cy="35"
           cx="35" />
        <g
           id="g49"
           transform="translate(20 19)">
          <circle
             style="fill:#2aff80"
             id="circle41"
             stroke-width="3"
             stroke="#6B4FBB"
             fill="#F4F1FA"
             r="15"
             cy="16"
             cx="15" />
          <path
             id="path43"
             d="M19.4189007 6.99558678l-.0072263.00000183L16.9586253 4l-2.4540672 2.99683187-.0051876.00000131L12.0453023 4 9.59021555 6.99807696l-.00314886 8e-7L7.13197929 4 4.67587296 6.99932205 2 7c2.60547306-4.20413993 7.23056895-7 12.5019638-7C19.7707109 0 24.3938081 2.79305214 27 6.99366605l-2.6760218.00067799L21.8719483 4l-2.4530476 2.99558678z"
             fill="#6B4FBB" />
          <circle
             id="circle45"
             fill="#6B4FBB"
             r="1.5"
             cy="17.5"
             cx="9.5" />
          <circle
             id="circle47"
             fill="#6B4FBB"
             r="1.5"
             cy="17.5"
             cx="20.5" />
        </g>
      </g>
      <use
         id="use53"
         xlink:href="#d"
         fill="#FFF" />
      <rect
         id="rect55"
         rx="10"
         stroke-width="4"
         stroke="#EEE"
         y="2"
         x="2"
         height="172"
         width="226" />
      <rect
         id="rect57"
         rx="2"
         fill="#EEE"
         y="42"
         x="33"
         height="122"
         width="4" />
      <g
         id="g75"
         transform="translate(13 59)">
        <rect
           id="rect59"
           rx="2"
           fill="#FEE1D3"
           height="4"
           width="10" />
        <rect
           id="rect61"
           rx="2"
           fill="#F0EDF8"
           y="12"
           height="4"
           width="10" />
        <rect
           id="rect63"
           rx="2"
           fill="#FEF0E9"
           y="24"
           height="4"
           width="10" />
        <rect
           id="rect65"
           rx="2"
           fill="#FEE1D3"
           y="36"
           height="4"
           width="10" />
        <rect
           id="rect67"
           rx="2"
           fill="#E1DBF1"
           y="48"
           height="4"
           width="10" />
        <rect
           id="rect69"
           rx="2"
           fill="#F0EDF8"
           y="60"
           height="4"
           width="10" />
        <rect
           id="rect71"
           rx="2"
           fill="#FEF0E9"
           y="72"
           height="4"
           width="10" />
        <rect
           id="rect73"
           rx="2"
           fill="#FEE1D3"
           y="84"
           height="4"
           width="10" />
      </g>
      <g
         id="g157"
         transform="translate(55 59)">
        <rect
           id="rect77"
           rx="2"
           fill="#6B4FBB"
           height="4"
           width="14" />
        <rect
           id="rect79"
           rx="2"
           fill="#F0EDF8"
           x="20"
           height="4"
           width="14" />
        <rect
           id="rect81"
           rx="2"
           fill="#FEF0E9"
           x="40"
           height="4"
           width="14" />
        <rect
           id="rect83"
           rx="2"
           fill="#F0EDF8"
           y="12"
           height="4"
           width="14" />
        <rect
           id="rect85"
           rx="2"
           fill="#FEF0E9"
           y="24"
           x="40"
           height="4"
           width="14" />
        <rect
           id="rect87"
           rx="2"
           fill="#E1DBF1"
           y="48"
           height="4"
           width="14" />
        <rect
           id="rect89"
           rx="2"
           fill="#FEF0E9"
           y="36"
           x="40"
           height="4"
           width="14" />
        <rect
           id="rect91"
           rx="2"
           fill="#FEE1D3"
           y="12"
           x="20"
           height="4"
           width="7" />
        <rect
           id="rect93"
           rx="2"
           fill="#6B4FBB"
           y="36"
           x="27"
           height="4"
           width="7" />
        <rect
           id="rect95"
           rx="2"
           fill="#FEE1D3"
           y="48"
           x="20"
           height="4"
           width="7" />
        <rect
           id="rect97"
           rx="2"
           fill="#FC6D26"
           y="24"
           height="4"
           width="7" />
        <rect
           id="rect99"
           rx="2"
           fill="#E1DBF1"
           y="24"
           x="13"
           height="4"
           width="21" />
        <rect
           id="rect101"
           rx="2"
           fill="#EEE"
           y="36"
           height="4"
           width="21" />
        <rect
           id="rect103"
           rx="2"
           fill="#6B4FBB"
           y="12"
           x="33"
           height="4"
           width="7" />
        <g
           id="g133"
           transform="translate(98)">
          <rect
             id="rect105"
             rx="2"
             fill="#FEE1D3"
             height="4"
             width="14" />
          <rect
             id="rect107"
             rx="2"
             fill="#F0EDF8"
             x="20"
             height="4"
             width="14" />
          <rect
             id="rect109"
             rx="2"
             fill="#FC6D26"
             x="40"
             height="4"
             width="14" />
          <rect
             id="rect111"
             rx="2"
             fill="#FEF0E9"
             y="12"
             height="4"
             width="14" />
          <rect
             id="rect113"
             rx="2"
             fill="#E1DBF1"
             y="24"
             x="40"
             height="4"
             width="14" />
          <rect
             id="rect115"
             rx="2"
             fill="#F0EDF8"
             y="48"
             height="4"
             width="14" />
          <rect
             id="rect117"
             rx="2"
             fill="#FEE1D3"
             y="36"
             x="40"
             height="4"
             width="14" />
          <rect
             id="rect119"
             rx="2"
             fill="#FC6D26"
             y="12"
             x="20"
             height="4"
             width="7" />
          <rect
             id="rect121"
             rx="2"
             fill="#6B4FBB"
             y="36"
             x="27"
             height="4"
             width="7" />
          <rect
             id="rect123"
             rx="2"
             fill="#FC6D26"
             y="48"
             x="20"
             height="4"
             width="7" />
          <rect
             id="rect125"
             rx="2"
             fill="#6B4FBB"
             y="24"
             height="4"
             width="7" />
          <rect
             id="rect127"
             rx="2"
             fill="#FEE1D3"
             y="24"
             x="13"
             height="4"
             width="21" />
          <rect
             id="rect129"
             rx="2"
             fill="#FEF0E9"
             y="36"
             height="4"
             width="21" />
          <rect
             id="rect131"
             rx="2"
             fill="#6B4FBB"
             y="12"
             x="33"
             height="4"
             width="7" />
        </g>
        <g
           id="g153"
           transform="translate(0 60)">
          <rect
             id="rect135"
             rx="2"
             fill="#F0EDF8"
             height="4"
             width="14" />
          <rect
             id="rect137"
             rx="2"
             fill="#6B4FBB"
             x="20"
             height="4"
             width="14" />
          <rect
             id="rect139"
             rx="2"
             fill="#E1DBF1"
             x="40"
             height="4"
             width="14" />
          <rect
             id="rect141"
             rx="2"
             fill="#FEF0E9"
             y="12"
             height="4"
             width="14" />
          <rect
             id="rect143"
             rx="2"
             fill="#FEE1D3"
             y="24"
             x="40"
             height="4"
             width="14" />
          <rect
             id="rect145"
             rx="2"
             fill="#EEE"
             y="12"
             x="20"
             height="4"
             width="7" />
          <rect
             id="rect147"
             rx="2"
             fill="#6B4FBB"
             y="24"
             height="4"
             width="7" />
          <rect
             id="rect149"
             rx="2"
             fill="#FEF0E9"
             y="24"
             x="13"
             height="4"
             width="21" />
          <rect
             id="rect151"
             rx="2"
             fill="#FC6D26"
             y="12"
             x="33"
             height="4"
             width="7" />
        </g>
        <rect
           id="rect155"
           rx="2"
           fill="#EEE"
           y="13"
           x="74"
           height="63"
           width="4" />
      </g>
      <rect
         id="rect159"
         rx="2"
         fill="#EEE"
         y="27"
         height="4"
         width="230" />
    </g>
    <g
       id="g169"
       transform="translate(233 201)">
      <use
         id="use163"
         xlink:href="#e"
         fill="#FFF" />
      <circle
         id="circle165"
         stroke-width="4"
         stroke="#EEE"
         r="29"
         cy="31"
         cx="31" />
      <path
         style="fill:#ff0000"
         id="path167"
         d="M29 29v-6c0-1.1045695.8954305-2 2-2s2 .8954305 2 2v6h6c1.1045695 0 2 .8954305 2 2s-.8954305 2-2 2h-6v6c0 1.1045695-.8954305 2-2 2s-2-.8954305-2-2v-6h-6c-1.1045695 0-2-.8954305-2-2s.8954305-2 2-2h6z"
         fill="#FC6D26" />
    </g>
  </g>
</svg>
