<?xml version="1.0" encoding="UTF-8" standalone="no"?>
<svg
   xmlns:dc="http://purl.org/dc/elements/1.1/"
   xmlns:cc="http://creativecommons.org/ns#"
   xmlns:rdf="http://www.w3.org/1999/02/22-rdf-syntax-ns#"
   xmlns:svg="http://www.w3.org/2000/svg"
   xmlns="http://www.w3.org/2000/svg"
   xmlns:sodipodi="http://sodipodi.sourceforge.net/DTD/sodipodi-0.dtd"
   xmlns:inkscape="http://www.inkscape.org/namespaces/inkscape"
   id="Capa_1"
   enable-background="new 0 0 512 512"
   height="512"
   viewBox="0 0 512 512"
   width="512"
   version="1.1"
   sodipodi:docname="pay-card.svg"
   inkscape:version="1.0 (4035a4fb49, 2020-05-01)">
  <metadata
     id="metadata78">
    <rdf:RDF>
      <cc:Work
         rdf:about="">
        <dc:format>image/svg+xml</dc:format>
        <dc:type
           rdf:resource="http://purl.org/dc/dcmitype/StillImage" />
      </cc:Work>
    </rdf:RDF>
  </metadata>
  <defs
     id="defs76" />
  <sodipodi:namedview
     inkscape:document-rotation="0"
     pagecolor="#ffffff"
     bordercolor="#666666"
     borderopacity="1"
     objecttolerance="10"
     gridtolerance="10"
     guidetolerance="10"
     inkscape:pageopacity="0"
     inkscape:pageshadow="2"
     inkscape:window-width="1920"
     inkscape:window-height="1017"
     id="namedview74"
     showgrid="false"
     inkscape:zoom="1.66"
     inkscape:cx="256"
     inkscape:cy="214.63843"
     inkscape:window-x="-8"
     inkscape:window-y="-8"
     inkscape:window-maximized="1"
     inkscape:current-layer="g71" />
  <g
     id="g71">
    <path
       d="M 512,75.275 H 256 L 235.984,252.976 256,436.725 h 256 z"
       fill="#4895ff"
       id="path45"
       style="stroke-width:1;fill:#4895ff;fill-opacity:1" />
    <path
       d="m0 75.275h256v361.451h-256z"
       fill="#5ecef4"
       id="path47" />
    <path
       d="m48.734 124.009h93.785v93.785h-93.785z"
       fill="#fff68e"
       id="path49" />
    <path
       d="m78.734 154.009h33.785v33.785h-33.785z"
       fill="#ffda44"
       id="path51" />
    <g
       fill="#fff5f5"
       id="g59">
      <path
         d="m47.839 294.154h31.893v30h-31.893z"
         id="path53" />
      <path
         d="m111.624 294.154h31.894v30h-31.894z"
         id="path55" />
      <path
         d="m175.41 294.154h31.893v30h-31.893z"
         id="path57" />
    </g>
    <path
       d="m286.088 294.154h31.893v30h-31.893z"
       fill="#e1ebf0"
       id="path61" />
    <path
       d="m349.873 294.154h31.894v30h-31.894z"
       fill="#e1ebf0"
       id="path63" />
    <path
       d="m430.552 294.154h31.893v30h-31.893z"
       fill="#e1ebf0"
       id="path65" />
    <path
       style="fill:#4895ff;fill-opacity:1;stroke-width:0.602353"
       d="M 0.18871,255.90459 V 75.499882 h 128 128 v 180.404708 180.4047 h -128 -128 z m 80.112941,53.30823 V 294.154 H 64.038122 47.774592 v 15.05882 15.05883 h 16.26353 16.263529 z m 63.849409,0 V 294.154 H 127.88753 111.624 v 15.05882 15.05883 h 16.26353 16.26353 z m 63.84941,0 V 294.154 h -16.26352 -16.26353 v 15.05882 15.05883 h 16.26353 16.26352 z m -65.05411,-138.24 v -47.2847 H 95.661651 48.376945 v 47.2847 47.28471 h 47.284706 47.284709 z"
       id="path214" />
  </g>
</svg>
