<?xml version="1.0" encoding="UTF-8" standalone="no"?>
<svg
   xmlns:dc="http://purl.org/dc/elements/1.1/"
   xmlns:cc="http://creativecommons.org/ns#"
   xmlns:rdf="http://www.w3.org/1999/02/22-rdf-syntax-ns#"
   xmlns:svg="http://www.w3.org/2000/svg"
   xmlns="http://www.w3.org/2000/svg"
   xmlns:sodipodi="http://sodipodi.sourceforge.net/DTD/sodipodi-0.dtd"
   xmlns:inkscape="http://www.inkscape.org/namespaces/inkscape"
   inkscape:version="1.0 (4035a4fb49, 2020-05-01)"
   sodipodi:docname="pay-card.svg"
   version="1.1"
   width="512"
   viewBox="0 0 512 512"
   height="512"
   enable-background="new 0 0 512 512"
   id="Capa_1">
  <metadata
     id="metadata78">
    <rdf:RDF>
      <cc:Work
         rdf:about="">
        <dc:format>image/svg+xml</dc:format>
        <dc:type
           rdf:resource="http://purl.org/dc/dcmitype/StillImage" />
      </cc:Work>
    </rdf:RDF>
  </metadata>
  <defs
     id="defs76" />
  <sodipodi:namedview
     inkscape:current-layer="g71"
     inkscape:window-maximized="1"
     inkscape:window-y="-8"
     inkscape:window-x="-8"
     inkscape:cy="214.63843"
     inkscape:cx="256"
     inkscape:zoom="1.66"
     showgrid="false"
     id="namedview74"
     inkscape:window-height="1017"
     inkscape:window-width="1920"
     inkscape:pageshadow="2"
     inkscape:pageopacity="0"
     guidetolerance="10"
     gridtolerance="10"
     objecttolerance="10"
     borderopacity="1"
     bordercolor="#666666"
     pagecolor="#ffffff" />
  <g
     id="g71">
    <path
       style="stroke-width:1;fill:#4895ff;fill-opacity:1"
       id="path45"
       fill="#4895ff"
       d="M 512,75.275 H 256 L 235.984,252.976 256,436.725 h 256 z" />
    <path
       id="path47"
       fill="#5ecef4"
       d="m0 75.275h256v361.451h-256z" />
    <path
       id="path49"
       fill="#fff68e"
       d="m48.734 124.009h93.785v93.785h-93.785z" />
    <path
       id="path51"
       fill="#ffda44"
       d="m78.734 154.009h33.785v33.785h-33.785z" />
    <g
       id="g59"
       fill="#fff5f5">
      <path
         id="path53"
         d="m47.839 294.154h31.893v30h-31.893z" />
      <path
         id="path55"
         d="m111.624 294.154h31.894v30h-31.894z" />
      <path
         id="path57"
         d="m175.41 294.154h31.893v30h-31.893z" />
    </g>
    <path
       id="path61"
       fill="#e1ebf0"
       d="m286.088 294.154h31.893v30h-31.893z" />
    <path
       id="path63"
       fill="#e1ebf0"
       d="m349.873 294.154h31.894v30h-31.894z" />
    <path
       id="path65"
       fill="#e1ebf0"
       d="m430.552 294.154h31.893v30h-31.893z" />
    <path
       id="path214"
       d="M 0,255.89961 V 75.494902 H 128 256 V 255.89961 436.30431 H 128 0 Z m 80.112941,53.30823 V 294.14902 H 63.849412 47.585882 v 15.05882 15.05883 h 16.26353 16.263529 z m 63.849409,0 v -15.05882 h -16.26353 -16.26353 v 15.05882 15.05883 h 16.26353 16.26353 z m 63.84941,0 v -15.05882 h -16.26352 -16.26353 v 15.05882 15.05883 h 16.26353 16.26352 z m -65.05411,-138.24 v -47.2847 H 95.472941 48.188235 v 47.2847 47.28471 h 47.284706 47.284709 z"
       style="fill:#4895ff;fill-opacity:1;stroke-width:0.602353" />
    <g
       transform="matrix(2.7534153,0,0,3.1271547,363.72854,319.14823)"
       id="g151">
      <g
         id="g149">
        <polygon
           points="23.043,16.799 19.153,16.799 16.722,31.065 20.61,31.065 "
           id="polygon147" />
      </g>
    </g>
    <g
       transform="matrix(2.7534153,0,0,3.1271547,363.72854,319.14823)"
       id="g157">
      <g
         id="g155">
        <path
           d="M 13.462,16.815 9.654,26.544 9.248,25.075 C 8.497,23.305 6.365,20.763 3.862,19.161 l 3.482,11.897 4.114,-0.007 6.123,-14.239 z"
           id="path153" />
      </g>
    </g>
    <g
       transform="matrix(2.7534153,0,0,3.1271547,363.72854,319.14823)"
       id="g169">
      <g
         id="g167">
        <path
           d="m 30.923,19.534 c 1.272,-0.02 2.194,0.258 2.91,0.546 l 0.351,0.165 0.526,-3.092 c -0.77,-0.289 -1.977,-0.599 -3.483,-0.599 -3.842,0 -6.55,1.935 -6.571,4.708 -0.025,2.049 1.929,3.193 3.405,3.876 1.515,0.7 2.023,1.145 2.016,1.77 -0.012,0.955 -1.208,1.393 -2.325,1.393 -1.557,0 -2.384,-0.215 -3.661,-0.747 l -0.501,-0.228 -0.547,3.193 c 0.91,0.399 2.589,0.742 4.332,0.76 4.087,0 6.743,-1.912 6.771,-4.875 0.017,-1.621 -1.02,-2.858 -3.267,-3.873 -1.36,-0.662 -2.192,-1.102 -2.184,-1.77 0,-0.593 0.706,-1.227 2.228,-1.227 z"
           id="path165" />
      </g>
    </g>
    <g
       transform="matrix(2.7534153,0,0,3.1271547,363.72854,319.14823)"
       id="g175">
      <g
         id="g173">
        <path
           d="m 44.688,16.815 h -3.004 c -0.933,0 -1.627,0.254 -2.037,1.184 l -5.773,13.074 h 4.083 c 0,0 0.666,-1.758 0.817,-2.143 0.447,0 4.414,0.006 4.979,0.006 0.116,0.498 0.474,2.137 0.474,2.137 h 3.607 z m -4.795,9.195 c 0.32,-0.819 1.549,-3.987 1.549,-3.987 -0.021,0.039 0.317,-0.825 0.518,-1.362 l 0.262,1.23 c 0,0 0.745,3.406 0.901,4.119 z"
           id="path171" />
      </g>
    </g>
  </g>
</svg>
